<svg width="760" height="760" viewBox="0 0 760 760" fill="none" xmlns="http://www.w3.org/2000/svg">
<circle cx="380" cy="380" r="380" fill="#0B0C0E"/>
<mask id="path-2-inside-1_1252_341" fill="white">
<path fill-rule="evenodd" clip-rule="evenodd" d="M467.412 321.022C464.683 320.869 462.139 321.797 460.332 323.607L390.544 393.493L320.658 463.281C318.848 465.088 317.92 467.632 318.074 470.361L325.924 609.807C326.446 619.092 337.974 624.5 344.123 618.345L479.7 482.649L615.396 347.072C621.551 340.923 616.143 329.395 606.858 328.872L467.412 321.022Z"/>
</mask>
<path fill-rule="evenodd" clip-rule="evenodd" d="M467.412 321.022C464.683 320.869 462.139 321.797 460.332 323.607L390.544 393.493L320.658 463.281C318.848 465.088 317.92 467.632 318.074 470.361L325.924 609.807C326.446 619.092 337.974 624.5 344.123 618.345L479.7 482.649L615.396 347.072C621.551 340.923 616.143 329.395 606.858 328.872L467.412 321.022Z" fill="#83E247"/>
<path d="M460.332 323.607L461.039 324.314L460.332 323.607ZM467.412 321.022L467.356 322.021L467.356 322.021L467.412 321.022ZM390.544 393.493L391.251 394.2L391.252 394.199L390.544 393.493ZM320.658 463.281L321.365 463.988L320.658 463.281ZM318.074 470.361L319.072 470.305L319.072 470.305L318.074 470.361ZM325.924 609.807L324.925 609.864L325.924 609.807ZM344.123 618.345L344.831 619.052L344.123 618.345ZM479.7 482.649L478.993 481.941L478.992 481.942L479.7 482.649ZM615.396 347.072L616.103 347.78L615.396 347.072ZM606.858 328.872L606.915 327.874L606.915 327.874L606.858 328.872ZM461.039 324.314C462.63 322.721 464.889 321.882 467.356 322.021L467.468 320.024C464.477 319.856 461.648 320.874 459.624 322.9L461.039 324.314ZM391.252 394.199L461.039 324.314L459.624 322.9L389.836 392.786L391.252 394.199ZM389.837 392.785L319.952 462.573L321.365 463.988L391.251 394.2L389.837 392.785ZM319.952 462.573C317.925 464.597 316.907 467.425 317.075 470.417L319.072 470.305C318.933 467.838 319.772 465.579 321.365 463.988L319.952 462.573ZM317.075 470.417L324.925 609.864L326.922 609.751L319.072 470.305L317.075 470.417ZM324.925 609.864C325.21 614.926 328.491 618.896 332.489 620.771C336.486 622.647 341.387 622.499 344.831 619.052L343.416 617.638C340.71 620.346 336.772 620.572 333.338 618.961C329.904 617.35 327.16 613.973 326.922 609.751L324.925 609.864ZM344.831 619.052L480.407 483.355L478.992 481.942L343.416 617.638L344.831 619.052ZM614.69 346.365L478.993 481.941L480.407 483.356L616.103 347.78L614.69 346.365ZM606.802 329.871C611.024 330.109 614.401 332.853 616.012 336.287C617.623 339.721 617.398 343.659 614.69 346.365L616.103 347.78C619.55 344.336 619.698 339.435 617.822 335.438C615.947 331.44 611.977 328.159 606.915 327.874L606.802 329.871ZM467.356 322.021L606.802 329.871L606.915 327.874L467.468 320.024L467.356 322.021Z" fill="#83E247" mask="url(#path-2-inside-1_1252_341)"/>
<mask id="path-4-inside-2_1252_341" fill="white">
<path fill-rule="evenodd" clip-rule="evenodd" d="M441.166 294.776C441.319 297.505 440.391 300.049 438.581 301.856L368.695 371.644L298.907 441.53C297.1 443.339 294.556 444.268 291.827 444.114L152.381 436.264C143.096 435.742 137.688 424.214 143.843 418.065L279.539 282.488L415.116 146.792C421.265 140.637 432.793 146.045 433.316 155.329L441.166 294.776Z"/>
</mask>
<path fill-rule="evenodd" clip-rule="evenodd" d="M441.166 294.776C441.319 297.505 440.391 300.049 438.581 301.856L368.695 371.644L298.907 441.53C297.1 443.339 294.556 444.268 291.827 444.114L152.381 436.264C143.096 435.742 137.688 424.214 143.843 418.065L279.539 282.488L415.116 146.792C421.265 140.637 432.793 146.045 433.316 155.329L441.166 294.776Z" fill="white"/>
<path d="M438.581 301.856L437.874 301.148L438.581 301.856ZM441.166 294.776L440.167 294.832L441.166 294.776ZM368.695 371.644L367.989 370.936L367.988 370.937L368.695 371.644ZM298.907 441.53L298.2 440.823L298.907 441.53ZM291.827 444.114L291.771 445.113L291.827 444.114ZM152.381 436.264L152.324 437.263L152.324 437.263L152.381 436.264ZM143.843 418.065L143.136 417.357L143.843 418.065ZM279.539 282.488L280.246 283.195L280.247 283.195L279.539 282.488ZM415.116 146.792L414.409 146.085L415.116 146.792ZM433.316 155.329L434.314 155.273L433.316 155.329ZM439.288 302.564C441.314 300.54 442.333 297.711 442.164 294.719L440.167 294.832C440.306 297.299 439.467 299.558 437.874 301.148L439.288 302.564ZM369.402 372.351L439.288 302.564L437.874 301.148L367.989 370.936L369.402 372.351ZM367.988 370.937L298.2 440.823L299.615 442.236L369.403 372.35L367.988 370.937ZM298.2 440.823C296.609 442.416 294.35 443.255 291.883 443.116L291.771 445.113C294.763 445.281 297.591 444.263 299.615 442.236L298.2 440.823ZM291.883 443.116L152.437 435.266L152.324 437.263L291.771 445.113L291.883 443.116ZM152.437 435.266C148.215 435.028 144.838 432.284 143.227 428.85C141.616 425.415 141.842 421.478 144.55 418.772L143.136 417.357C139.689 420.801 139.541 425.702 141.417 429.699C143.292 433.697 147.262 436.978 152.324 437.263L152.437 435.266ZM144.55 418.772L280.246 283.195L278.833 281.781L143.136 417.357L144.55 418.772ZM414.409 146.085L278.832 281.781L280.247 283.195L415.823 147.498L414.409 146.085ZM434.314 155.273C434.029 150.211 430.748 146.241 426.75 144.365C422.753 142.49 417.852 142.638 414.409 146.085L415.823 147.498C418.529 144.79 422.467 144.565 425.901 146.176C429.335 147.787 432.079 151.163 432.317 155.386L434.314 155.273ZM442.164 294.719L434.314 155.273L432.317 155.386L440.167 294.832L442.164 294.719Z" fill="white" mask="url(#path-4-inside-2_1252_341)"/>
</svg>
