<svg width="760" height="760" viewBox="0 0 760 760" fill="none" xmlns="http://www.w3.org/2000/svg">
<circle cx="380" cy="380" r="380" fill="#0B0C0E"/>
<path d="M425.875 192.428C427.715 191.352 429.807 190.784 431.939 190.784L591.432 190.784C595.499 190.784 596.971 196.148 593.473 198.224L393.009 317.2L284.509 275.2L425.875 192.428Z" fill="#83E247"/>
<path d="M329.623 566.253C327.783 567.33 325.691 567.898 323.559 567.898L164.066 567.898C159.999 567.898 158.527 562.534 162.025 560.458L362.489 441.482L470.989 483.482L329.623 566.253Z" fill="#83E247"/>
<path d="M269.002 285L547.943 393.406C566.703 400.697 568.697 426.452 551.282 436.542L487.5 473.5L212.954 364.628C194.601 357.35 192.397 332.259 209.201 321.892L269.002 285Z" fill="white"/>
</svg>
