<svg width="20" height="20" viewBox="0 0 20 20" fill="none" xmlns="http://www.w3.org/2000/svg">
<g clip-path="url(#clip0_4_255)">
<g filter="url(#filter0_d_4_255)">
<path d="M9.05451 12.579C8.63495 13.0583 8.22322 13.5286 7.81149 13.9989C6.58245 15.4031 5.35318 16.8073 4.12414 18.2118C4.01486 18.3367 3.90749 18.463 3.79537 18.5853C3.77261 18.6102 3.73279 18.6334 3.70055 18.6337C2.75549 18.6363 1.81042 18.6358 0.865353 18.6353C0.854449 18.6353 0.843546 18.6323 0.817709 18.6285C3.11009 16.0083 5.39489 13.3971 7.68159 10.7833C5.26713 7.62568 2.85718 4.4738 0.433472 1.30414H0.545827C2.49806 1.30414 4.45054 1.30438 6.40278 1.30272C6.47175 1.30272 6.51513 1.3224 6.55756 1.37834C7.91436 3.17413 9.27282 4.9685 10.631 6.76287C10.6486 6.7861 10.6671 6.80885 10.6908 6.83872C10.8169 6.69531 10.9399 6.55617 11.0622 6.41608C12.5307 4.73715 13.9993 3.05822 15.4664 1.3781C15.5133 1.32429 15.5602 1.30201 15.6325 1.30225C16.542 1.30486 17.4515 1.30391 18.3611 1.30391H18.472L12.0504 8.64565C14.5654 11.971 17.0784 15.2943 19.6053 18.6356H19.4837C17.5907 18.6356 15.6975 18.6351 13.8045 18.6375C13.7227 18.6375 13.6718 18.6157 13.621 18.5491C12.1258 16.5909 10.6284 14.6346 9.13131 12.6781C9.10784 12.6478 9.08438 12.6177 9.05451 12.579ZM16.1279 16.8753C16.086 16.8192 16.0597 16.7838 16.0334 16.7488C14.3136 14.4744 12.5939 12.1998 10.8742 9.92542C9.14008 7.63208 7.40568 5.33899 5.67294 3.04471C5.63146 2.98971 5.58926 2.9672 5.51934 2.96743C5.00094 2.97051 4.48254 2.96909 3.96414 2.96933C3.93664 2.96933 3.90915 2.97217 3.86838 2.97431C3.90227 3.01911 3.92669 3.05182 3.95158 3.08429C4.49866 3.7992 5.04574 4.5141 5.59258 5.229C8.54559 9.08844 11.4981 12.9474 14.4495 16.8075C14.4876 16.8576 14.5267 16.877 14.5896 16.8768C15.0665 16.8742 15.5434 16.8753 16.0203 16.8753H16.1279Z" fill="#FFFEFC" fill-opacity="0.6" shape-rendering="crispEdges"/>
</g>
</g>
<defs>
<filter id="filter0_d_4_255" x="-3.56653" y="1.30225" width="27.1718" height="25.3352" filterUnits="userSpaceOnUse" color-interpolation-filters="sRGB">
<feFlood flood-opacity="0" result="BackgroundImageFix"/>
<feColorMatrix in="SourceAlpha" type="matrix" values="0 0 0 0 0 0 0 0 0 0 0 0 0 0 0 0 0 0 127 0" result="hardAlpha"/>
<feOffset dy="4"/>
<feGaussianBlur stdDeviation="2"/>
<feComposite in2="hardAlpha" operator="out"/>
<feColorMatrix type="matrix" values="0 0 0 0 0 0 0 0 0 0 0 0 0 0 0 0 0 0 0.25 0"/>
<feBlend mode="normal" in2="BackgroundImageFix" result="effect1_dropShadow_4_255"/>
<feBlend mode="normal" in="SourceGraphic" in2="effect1_dropShadow_4_255" result="shape"/>
</filter>
<clipPath id="clip0_4_255">
<rect width="20" height="20" fill="white"/>
</clipPath>
</defs>
</svg>
