<svg width="73" height="24" viewBox="0 0 73 24" fill="none" xmlns="http://www.w3.org/2000/svg">
<rect x="0.25" y="0.25" width="72.5" height="23.5" rx="3.75" fill="#00C785" fill-opacity="0.05" stroke="#2E502F" stroke-width="0.5"/>
<path d="M14.477 12.029C14.9097 12.1097 15.2763 12.3297 15.577 12.689C15.8777 13.0483 16.028 13.4663 16.028 13.943C16.028 14.3317 15.929 14.6837 15.731 14.999C15.5403 15.307 15.258 15.5527 14.884 15.736C14.51 15.912 14.0627 16 13.542 16H10.88V8.311H13.465C14.2423 8.311 14.8327 8.49067 15.236 8.85C15.6467 9.20933 15.852 9.675 15.852 10.247C15.852 10.7237 15.7237 11.1123 15.467 11.413C15.2103 11.7063 14.8803 11.9117 14.477 12.029ZM11.65 11.71H13.443C13.9637 11.71 14.3633 11.589 14.642 11.347C14.928 11.0977 15.071 10.7567 15.071 10.324C15.071 9.89867 14.928 9.565 14.642 9.323C14.3633 9.081 13.9527 8.96 13.41 8.96H11.65V11.71ZM13.487 15.351C14.0443 15.351 14.477 15.219 14.785 14.955C15.1003 14.691 15.258 14.328 15.258 13.866C15.258 13.404 15.093 13.0373 14.763 12.766C14.4403 12.4873 14.004 12.348 13.454 12.348H11.65V15.351H13.487ZM22.8775 12.689C22.8775 12.953 22.8701 13.1547 22.8555 13.294H17.8725C17.8945 13.7487 18.0045 14.1373 18.2025 14.46C18.4005 14.7827 18.6608 15.0283 18.9835 15.197C19.3061 15.3583 19.6581 15.439 20.0395 15.439C20.5381 15.439 20.9561 15.318 21.2935 15.076C21.6381 14.834 21.8655 14.5077 21.9755 14.097H22.7895C22.6428 14.6837 22.3275 15.164 21.8435 15.538C21.3668 15.9047 20.7655 16.088 20.0395 16.088C19.4748 16.088 18.9688 15.9633 18.5215 15.714C18.0741 15.4573 17.7221 15.098 17.4655 14.636C17.2161 14.1667 17.0915 13.6203 17.0915 12.997C17.0915 12.3737 17.2161 11.8273 17.4655 11.358C17.7148 10.8887 18.0631 10.5293 18.5105 10.28C18.9578 10.0307 19.4675 9.906 20.0395 9.906C20.6115 9.906 21.1101 10.0307 21.5355 10.28C21.9681 10.5293 22.2981 10.8667 22.5255 11.292C22.7601 11.71 22.8775 12.1757 22.8775 12.689ZM22.0965 12.667C22.1038 12.2197 22.0121 11.8383 21.8215 11.523C21.6381 11.2077 21.3851 10.9693 21.0625 10.808C20.7398 10.6467 20.3878 10.566 20.0065 10.566C19.4345 10.566 18.9468 10.7493 18.5435 11.116C18.1401 11.4827 17.9165 11.9997 17.8725 12.667H22.0965ZM26.3543 16.088C25.6649 16.088 25.1003 15.9303 24.6603 15.615C24.2276 15.2923 23.9856 14.856 23.9343 14.306H24.7263C24.7629 14.6433 24.9206 14.9183 25.1993 15.131C25.4853 15.3363 25.8666 15.439 26.3433 15.439C26.7613 15.439 27.0876 15.34 27.3223 15.142C27.5643 14.944 27.6853 14.6983 27.6853 14.405C27.6853 14.1997 27.6193 14.031 27.4873 13.899C27.3553 13.767 27.1866 13.6643 26.9813 13.591C26.7833 13.5103 26.5119 13.426 26.1673 13.338C25.7199 13.2207 25.3569 13.1033 25.0783 12.986C24.7996 12.8687 24.5613 12.6963 24.3633 12.469C24.1726 12.2343 24.0773 11.9227 24.0773 11.534C24.0773 11.2407 24.1653 10.9693 24.3413 10.72C24.5173 10.4707 24.7666 10.2727 25.0893 10.126C25.4119 9.97933 25.7786 9.906 26.1893 9.906C26.8346 9.906 27.3553 10.071 27.7513 10.401C28.1473 10.7237 28.3599 11.171 28.3893 11.743H27.6193C27.5973 11.391 27.4579 11.1087 27.2013 10.896C26.9519 10.676 26.6073 10.566 26.1673 10.566C25.7786 10.566 25.4633 10.6577 25.2213 10.841C24.9793 11.0243 24.8582 11.2517 24.8582 11.523C24.8582 11.7577 24.9279 11.952 25.0673 12.106C25.2139 12.2527 25.3936 12.37 25.6063 12.458C25.8189 12.5387 26.1049 12.6303 26.4643 12.733C26.8969 12.8503 27.2416 12.964 27.4983 13.074C27.7549 13.184 27.9749 13.3453 28.1583 13.558C28.3416 13.7707 28.4369 14.053 28.4443 14.405C28.4443 14.7277 28.3563 15.0173 28.1803 15.274C28.0043 15.5233 27.7586 15.7213 27.4433 15.868C27.1279 16.0147 26.7649 16.088 26.3543 16.088ZM30.8947 10.643V14.372C30.8947 14.7387 30.9643 14.9917 31.1037 15.131C31.243 15.2703 31.4887 15.34 31.8407 15.34H32.5447V16H31.7197C31.177 16 30.7737 15.8753 30.5097 15.626C30.2457 15.3693 30.1137 14.9513 30.1137 14.372V10.643H29.2777V9.994H30.1137V8.487H30.8947V9.994H32.5447V10.643H30.8947ZM41.7501 10.522C41.7501 11.182 41.5338 11.7137 41.1011 12.117C40.6685 12.5203 40.0195 12.722 39.1541 12.722H37.6031V16H36.8331V8.311H39.1541C40.0121 8.311 40.6575 8.51267 41.0901 8.916C41.5301 9.31933 41.7501 9.85467 41.7501 10.522ZM39.1541 12.062C40.3568 12.062 40.9581 11.5487 40.9581 10.522C40.9581 10.0087 40.8151 9.62 40.5291 9.356C40.2431 9.092 39.7848 8.96 39.1541 8.96H37.6031V12.062H39.1541ZM43.8121 11.061C43.9808 10.687 44.2374 10.3973 44.5821 10.192C44.9341 9.98667 45.3631 9.884 45.8691 9.884V10.687H45.6601C45.1028 10.687 44.6554 10.8373 44.3181 11.138C43.9808 11.4387 43.8121 11.941 43.8121 12.645V16H43.0421V9.994H43.8121V11.061ZM47.4125 8.861C47.2585 8.861 47.1265 8.806 47.0165 8.696C46.9065 8.586 46.8515 8.45033 46.8515 8.289C46.8515 8.12767 46.9065 7.99567 47.0165 7.893C47.1265 7.783 47.2585 7.728 47.4125 7.728C47.5665 7.728 47.6985 7.783 47.8085 7.893C47.9185 7.99567 47.9735 8.12767 47.9735 8.289C47.9735 8.45033 47.9185 8.586 47.8085 8.696C47.6985 8.806 47.5665 8.861 47.4125 8.861ZM47.7975 9.994V16H47.0275V9.994H47.7975ZM49.1891 12.997C49.1891 12.3737 49.3138 11.831 49.5631 11.369C49.8125 10.8997 50.1571 10.5403 50.5971 10.291C51.0371 10.0343 51.5395 9.906 52.1041 9.906C52.8448 9.906 53.4535 10.0893 53.9301 10.456C54.4141 10.8227 54.7258 11.3213 54.8651 11.952H54.0401C53.9375 11.5193 53.7138 11.182 53.3691 10.94C53.0318 10.6907 52.6101 10.566 52.1041 10.566C51.7008 10.566 51.3378 10.6577 51.0151 10.841C50.6925 11.0243 50.4358 11.2993 50.2451 11.666C50.0618 12.0253 49.9701 12.469 49.9701 12.997C49.9701 13.525 50.0618 13.9723 50.2451 14.339C50.4358 14.7057 50.6925 14.9807 51.0151 15.164C51.3378 15.3473 51.7008 15.439 52.1041 15.439C52.6101 15.439 53.0318 15.318 53.3691 15.076C53.7138 14.8267 53.9375 14.482 54.0401 14.042H54.8651C54.7258 14.658 54.4141 15.153 53.9301 15.527C53.4461 15.901 52.8375 16.088 52.1041 16.088C51.5395 16.088 51.0371 15.9633 50.5971 15.714C50.1571 15.4573 49.8125 15.098 49.5631 14.636C49.3138 14.1667 49.1891 13.6203 49.1891 12.997ZM61.7212 12.689C61.7212 12.953 61.7139 13.1547 61.6992 13.294H56.7162C56.7382 13.7487 56.8482 14.1373 57.0462 14.46C57.2442 14.7827 57.5046 15.0283 57.8272 15.197C58.1499 15.3583 58.5019 15.439 58.8832 15.439C59.3819 15.439 59.7999 15.318 60.1372 15.076C60.4819 14.834 60.7092 14.5077 60.8192 14.097H61.6332C61.4866 14.6837 61.1712 15.164 60.6872 15.538C60.2106 15.9047 59.6092 16.088 58.8832 16.088C58.3186 16.088 57.8126 15.9633 57.3652 15.714C56.9179 15.4573 56.5659 15.098 56.3092 14.636C56.0599 14.1667 55.9352 13.6203 55.9352 12.997C55.9352 12.3737 56.0599 11.8273 56.3092 11.358C56.5586 10.8887 56.9069 10.5293 57.3542 10.28C57.8016 10.0307 58.3112 9.906 58.8832 9.906C59.4552 9.906 59.9539 10.0307 60.3792 10.28C60.8119 10.5293 61.1419 10.8667 61.3692 11.292C61.6039 11.71 61.7212 12.1757 61.7212 12.689ZM60.9402 12.667C60.9476 12.2197 60.8559 11.8383 60.6652 11.523C60.4819 11.2077 60.2289 10.9693 59.9062 10.808C59.5836 10.6467 59.2316 10.566 58.8502 10.566C58.2782 10.566 57.7906 10.7493 57.3872 11.116C56.9839 11.4827 56.7602 11.9997 56.7162 12.667H60.9402Z" fill="#65A282"/>
</svg>
