<svg width="31" height="19" viewBox="0 0 31 19" fill="none" xmlns="http://www.w3.org/2000/svg">
<rect y="3.5" width="31" height="13" rx="2" fill="#00481D"/>
<path d="M7.84225 10.051C8.12092 10.095 8.37392 10.2087 8.60125 10.392C8.83592 10.5753 9.01925 10.8027 9.15125 11.074C9.29058 11.3453 9.36025 11.635 9.36025 11.943C9.36025 12.3317 9.26125 12.6837 9.06325 12.999C8.86525 13.307 8.57558 13.5527 8.19425 13.736C7.82025 13.912 7.37658 14 6.86325 14H4.00325V6.333H6.75325C7.27392 6.333 7.71758 6.421 8.08425 6.597C8.45092 6.76567 8.72592 6.99667 8.90925 7.29C9.09258 7.58333 9.18425 7.91333 9.18425 8.28C9.18425 8.73467 9.05958 9.11233 8.81025 9.413C8.56825 9.70633 8.24558 9.919 7.84225 10.051ZM5.00425 9.644H6.68725C7.15658 9.644 7.51958 9.534 7.77625 9.314C8.03292 9.094 8.16125 8.78967 8.16125 8.401C8.16125 8.01233 8.03292 7.708 7.77625 7.488C7.51958 7.268 7.14925 7.158 6.66525 7.158H5.00425V9.644ZM6.77525 13.175C7.27392 13.175 7.66258 13.0577 7.94125 12.823C8.21992 12.5883 8.35925 12.262 8.35925 11.844C8.35925 11.4187 8.21258 11.085 7.91925 10.843C7.62592 10.5937 7.23358 10.469 6.74225 10.469H5.00425V13.175H6.77525ZM11.7503 7.147V9.71H14.5443V10.535H11.7503V13.175H14.8743V14H10.7493V6.322H14.8743V7.147H11.7503ZM21.108 6.333V7.147H19.018V14H18.017V7.147H15.916V6.333H21.108ZM26.8722 12.295H23.5282L22.9122 14H21.8562L24.6282 6.377H25.7832L28.5442 14H27.4882L26.8722 12.295ZM26.5862 11.481L25.2002 7.609L23.8142 11.481H26.5862Z" fill="var(--color-text-primary)"/>
</svg>
