<svg width="14" height="14" viewBox="0 0 14 14" fill="none" xmlns="http://www.w3.org/2000/svg">
<path d="M8.75 2.1875H3.5C3.01656 2.1875 2.625 2.57906 2.625 3.0625V9.1875H3.5V3.0625H8.75V2.1875ZM10.0625 3.9375H5.25C4.76656 3.9375 4.375 4.3295 4.375 4.8125V10.9375C4.375 11.4205 4.76656 11.8125 5.25 11.8125H10.0625C10.5455 11.8125 10.9375 11.4205 10.9375 10.9375V4.8125C10.9375 4.3295 10.5455 3.9375 10.0625 3.9375ZM5.25 4.8125H10.0625V10.9375H5.25V4.8125Z" fill="#666666"/>
<path d="M8.75 2.1875H3.5C3.01656 2.1875 2.625 2.57906 2.625 3.0625V9.1875H3.5V3.0625H8.75V2.1875ZM10.0625 3.9375H5.25C4.76656 3.9375 4.375 4.3295 4.375 4.8125V10.9375C4.375 11.4205 4.76656 11.8125 5.25 11.8125H10.0625C10.5455 11.8125 10.9375 11.4205 10.9375 10.9375V4.8125C10.9375 4.3295 10.5455 3.9375 10.0625 3.9375ZM5.25 4.8125H10.0625V10.9375H5.25V4.8125Z" fill="#676767"/>
</svg>
