<svg width="11" height="11" viewBox="0 0 11 11" fill="none" xmlns="http://www.w3.org/2000/svg">
<path d="M8.47342 5.36386H2.30976C1.46004 5.36386 0.769919 4.67374 0.769919 3.82402C0.769919 2.97431 1.46004 2.28418 2.30976 2.28418H6.23268C6.39443 2.7457 6.83007 3.0541 7.31747 3.0541C7.80487 3.0541 8.24051 2.74355 8.40226 2.28418H10.3993C10.6128 2.28418 10.7853 2.11165 10.7853 1.89814C10.7853 1.68464 10.6128 1.51211 10.3993 1.51211H8.40226C8.24051 1.05059 7.80487 0.742188 7.31747 0.742188C6.83007 0.742188 6.39443 1.05274 6.23268 1.51211H2.30976C1.03519 1.51426 0 2.54945 0 3.82402C0 5.09859 1.03519 6.13378 2.30976 6.13378H8.47127C9.32098 6.13378 10.0111 6.8239 10.0111 7.67362C10.0111 8.52333 9.32098 9.21346 8.47127 9.21346H4.5505C4.38876 8.75194 3.95311 8.44354 3.46571 8.44354C2.97832 8.44354 2.54267 8.75409 2.38093 9.21346H0.386038C0.172531 9.21346 0 9.38599 0 9.59949C0 9.813 0.172531 9.98553 0.386038 9.98553H2.38308C2.54483 10.4471 2.98047 10.7555 3.46787 10.7555C3.95527 10.7555 4.39091 10.4449 4.55266 9.98553H8.47342C9.75015 9.98553 10.7832 8.95035 10.7832 7.67577C10.7832 6.39905 9.748 5.36386 8.47342 5.36386ZM7.31747 1.51426C7.53098 1.50564 7.70998 1.67385 7.71645 1.8852C7.72507 2.09871 7.55686 2.27771 7.34551 2.28418H7.31747C7.10396 2.27556 6.9379 2.09871 6.94653 1.8852C6.953 1.68248 7.11474 1.52073 7.31747 1.51426ZM3.46571 9.98553C3.25221 9.98553 3.07968 9.813 3.07968 9.60165C3.07968 9.38814 3.25221 9.21561 3.46356 9.21561C3.67707 9.21561 3.8496 9.38814 3.8496 9.60165C3.85175 9.813 3.67922 9.98553 3.46571 9.98553Z" fill="#00CAE0"/>
</svg>
