<svg width="12" height="12" viewBox="0 0 12 12" fill="none" xmlns="http://www.w3.org/2000/svg">
<path d="M9.9 8.36406L6.4 3.69756C6.35343 3.63546 6.29303 3.58506 6.22361 3.55035C6.15418 3.51563 6.07762 3.49756 6 3.49756C5.92238 3.49756 5.84582 3.51563 5.77639 3.55035C5.70697 3.58506 5.64657 3.63546 5.6 3.69756L2.1 8.36406C2.04429 8.43835 2.01036 8.52668 2.00202 8.61916C1.99368 8.71164 2.01126 8.80462 2.05279 8.88767C2.09431 8.97072 2.15815 9.04057 2.23713 9.08939C2.31612 9.1382 2.40714 9.16406 2.5 9.16406L9.5 9.16406C9.59286 9.16406 9.68388 9.1382 9.76287 9.08939C9.84185 9.04057 9.90569 8.97072 9.94721 8.88767C9.98874 8.80462 10.0063 8.71164 9.99798 8.61916C9.98964 8.52668 9.95571 8.43835 9.9 8.36406Z" fill="#60AC7E"/>
</svg>
