<svg width="12" height="12" viewBox="0 0 12 12" fill="none" xmlns="http://www.w3.org/2000/svg">
<path d="M6.32188 8.90791L6.4 8.9665L6.32188 8.90791C6.2844 8.95788 6.2358 8.99843 6.17993 9.02637C6.12407 9.0543 6.06246 9.06884 6 9.06884C5.93754 9.06884 5.87593 9.0543 5.82007 9.02637C5.7642 8.99843 5.7156 8.95788 5.67813 8.90791L5.6 8.9665L5.67812 8.90791L2.17813 4.24141C2.13329 4.18163 2.10599 4.11055 2.09928 4.03613C2.09257 3.96171 2.10672 3.8869 2.14013 3.82007C2.17355 3.75324 2.22492 3.69703 2.28848 3.65775C2.35204 3.61846 2.42528 3.59766 2.5 3.59766H9.5C9.57472 3.59766 9.64796 3.61846 9.71152 3.65775C9.77509 3.69703 9.82645 3.75324 9.85987 3.82007C9.89328 3.8869 9.90743 3.96171 9.90072 4.03613C9.89401 4.11055 9.86671 4.18163 9.82188 4.2414L6.32188 8.90791Z" fill="#C36666" stroke="#C36666" stroke-width="0.195312"/>
</svg>
