<svg width="90" height="24" viewBox="0 0 90 24" fill="none" xmlns="http://www.w3.org/2000/svg">
<rect x="0.25" y="0.25" width="86.5" height="23.5" rx="3.75" fill="#00C785" fill-opacity="0.05" stroke="#2E502F" stroke-width="0.5"/>
<path d="M12.212 16.077C11.706 16.077 11.2587 15.989 10.87 15.813C10.4887 15.637 10.188 15.3913 9.968 15.076C9.748 14.7607 9.63067 14.4087 9.616 14.02H10.43C10.4667 14.394 10.6317 14.724 10.925 15.01C11.2183 15.2887 11.6473 15.428 12.212 15.428C12.7327 15.428 13.1433 15.296 13.444 15.032C13.752 14.7607 13.906 14.4197 13.906 14.009C13.906 13.679 13.8217 13.415 13.653 13.217C13.4843 13.0117 13.2753 12.8613 13.026 12.766C12.7767 12.6633 12.432 12.5533 11.992 12.436C11.4787 12.2967 11.0717 12.161 10.771 12.029C10.4703 11.897 10.2137 11.6917 10.001 11.413C9.78833 11.1343 9.682 10.7567 9.682 10.28C9.682 9.884 9.78467 9.532 9.99 9.224C10.1953 8.90867 10.485 8.663 10.859 8.487C11.233 8.311 11.662 8.223 12.146 8.223C12.8573 8.223 13.4293 8.399 13.862 8.751C14.302 9.09567 14.555 9.543 14.621 10.093H13.785C13.7337 9.77767 13.5613 9.499 13.268 9.257C12.9747 9.00767 12.5787 8.883 12.08 8.883C11.618 8.883 11.233 9.00767 10.925 9.257C10.617 9.499 10.463 9.83267 10.463 10.258C10.463 10.5807 10.5473 10.841 10.716 11.039C10.8847 11.237 11.0937 11.3873 11.343 11.49C11.5997 11.5927 11.9443 11.7027 12.377 11.82C12.8757 11.9593 13.279 12.0987 13.587 12.238C13.895 12.37 14.1553 12.5753 14.368 12.854C14.5807 13.1327 14.687 13.5067 14.687 13.976C14.687 14.3353 14.5917 14.6763 14.401 14.999C14.2103 15.3217 13.928 15.582 13.554 15.78C13.18 15.978 12.7327 16.077 12.212 16.077ZM23.3249 9.884C24.0289 9.884 24.6009 10.1077 25.0409 10.555C25.4883 10.995 25.7119 11.6367 25.7119 12.48V16H24.9529V12.568C24.9529 11.9153 24.7953 11.4167 24.4799 11.072C24.1646 10.7273 23.7356 10.555 23.1929 10.555C22.6283 10.555 22.1773 10.742 21.8399 11.116C21.5026 11.49 21.3339 12.0327 21.3339 12.744V16H20.5749V12.568C20.5749 11.9153 20.4173 11.4167 20.1019 11.072C19.7866 10.7273 19.3539 10.555 18.8039 10.555C18.2393 10.555 17.7883 10.742 17.4509 11.116C17.1136 11.49 16.9449 12.0327 16.9449 12.744V16H16.1749V9.994H16.9449V11.028C17.1356 10.654 17.4069 10.3717 17.7589 10.181C18.1109 9.983 18.5033 9.884 18.9359 9.884C19.4566 9.884 19.9113 10.0087 20.2999 10.258C20.6959 10.5073 20.9819 10.874 21.1579 11.358C21.3193 10.8813 21.5943 10.5183 21.9829 10.269C22.3789 10.0123 22.8263 9.884 23.3249 9.884ZM27.07 12.986C27.07 12.37 27.191 11.831 27.433 11.369C27.6823 10.8997 28.0233 10.5403 28.456 10.291C28.896 10.0343 29.391 9.906 29.941 9.906C30.513 9.906 31.0043 10.038 31.415 10.302C31.833 10.566 32.1337 10.9033 32.317 11.314V9.994H33.087V16H32.317V14.669C32.1263 15.0797 31.822 15.4207 31.404 15.692C30.9933 15.956 30.502 16.088 29.93 16.088C29.3873 16.088 28.896 15.9597 28.456 15.703C28.0233 15.4463 27.6823 15.0833 27.433 14.614C27.191 14.1447 27.07 13.602 27.07 12.986ZM32.317 12.997C32.317 12.513 32.218 12.0877 32.02 11.721C31.822 11.3543 31.5507 11.072 31.206 10.874C30.8687 10.676 30.4947 10.577 30.084 10.577C29.6587 10.577 29.2773 10.6723 28.94 10.863C28.6027 11.0537 28.335 11.3323 28.137 11.699C27.9463 12.0583 27.851 12.4873 27.851 12.986C27.851 13.4773 27.9463 13.91 28.137 14.284C28.335 14.6507 28.6027 14.933 28.94 15.131C29.2773 15.3217 29.6587 15.417 30.084 15.417C30.4947 15.417 30.8687 15.318 31.206 15.12C31.5507 14.922 31.822 14.6397 32.02 14.273C32.218 13.9063 32.317 13.481 32.317 12.997ZM35.6148 11.061C35.7835 10.687 36.0402 10.3973 36.3848 10.192C36.7368 9.98667 37.1658 9.884 37.6718 9.884V10.687H37.4628C36.9055 10.687 36.4582 10.8373 36.1208 11.138C35.7835 11.4387 35.6148 11.941 35.6148 12.645V16H34.8448V9.994H35.6148V11.061ZM39.8312 10.643V14.372C39.8312 14.7387 39.9009 14.9917 40.0402 15.131C40.1795 15.2703 40.4252 15.34 40.7772 15.34H41.4812V16H40.6562C40.1135 16 39.7102 15.8753 39.4462 15.626C39.1822 15.3693 39.0502 14.9513 39.0502 14.372V10.643H38.2142V9.994H39.0502V8.487H39.8312V9.994H41.4812V10.643H39.8312ZM49.8616 16L47.9586 12.788H46.5396V16H45.7696V8.311H48.0796C48.9376 8.311 49.5866 8.51633 50.0266 8.927C50.474 9.33767 50.6976 9.87667 50.6976 10.544C50.6976 11.1013 50.5363 11.578 50.2136 11.974C49.8983 12.3627 49.429 12.6157 48.8056 12.733L50.7856 16H49.8616ZM46.5396 12.161H48.0906C48.692 12.161 49.143 12.0143 49.4436 11.721C49.7516 11.4277 49.9056 11.0353 49.9056 10.544C49.9056 10.038 49.759 9.64933 49.4656 9.378C49.1723 9.09933 48.7103 8.96 48.0796 8.96H46.5396V12.161ZM54.8547 16.088C54.29 16.088 53.7804 15.9633 53.3257 15.714C52.8784 15.4573 52.5227 15.098 52.2587 14.636C52.002 14.1667 51.8737 13.6203 51.8737 12.997C51.8737 12.3737 52.0057 11.831 52.2697 11.369C52.5337 10.8997 52.893 10.5403 53.3477 10.291C53.8024 10.0343 54.312 9.906 54.8767 9.906C55.4414 9.906 55.951 10.0343 56.4057 10.291C56.8677 10.5403 57.227 10.8997 57.4837 11.369C57.7477 11.831 57.8797 12.3737 57.8797 12.997C57.8797 13.613 57.7477 14.1557 57.4837 14.625C57.2197 15.0943 56.8567 15.4573 56.3947 15.714C55.9327 15.9633 55.4194 16.088 54.8547 16.088ZM54.8547 15.417C55.2507 15.417 55.6174 15.329 55.9547 15.153C56.292 14.9697 56.5634 14.6983 56.7687 14.339C56.9814 13.9723 57.0877 13.525 57.0877 12.997C57.0877 12.469 56.985 12.0253 56.7797 11.666C56.5744 11.2993 56.303 11.028 55.9657 10.852C55.6284 10.6687 55.2617 10.577 54.8657 10.577C54.4697 10.577 54.103 10.6687 53.7657 10.852C53.4284 11.028 53.157 11.2993 52.9517 11.666C52.7537 12.0253 52.6547 12.469 52.6547 12.997C52.6547 13.525 52.7537 13.9723 52.9517 14.339C53.157 14.6983 53.4247 14.9697 53.7547 15.153C54.092 15.329 54.4587 15.417 54.8547 15.417ZM64.4863 9.994V16H63.7163V14.944C63.5403 15.318 63.269 15.604 62.9023 15.802C62.5357 16 62.125 16.099 61.6703 16.099C60.9517 16.099 60.365 15.879 59.9103 15.439C59.4557 14.9917 59.2283 14.3463 59.2283 13.503V9.994H59.9873V13.415C59.9873 14.0677 60.1487 14.5663 60.4713 14.911C60.8013 15.2557 61.2487 15.428 61.8133 15.428C62.3927 15.428 62.8547 15.2447 63.1993 14.878C63.544 14.5113 63.7163 13.9723 63.7163 13.261V9.994H64.4863ZM67.2453 10.643V14.372C67.2453 14.7387 67.3149 14.9917 67.4543 15.131C67.5936 15.2703 67.8393 15.34 68.1913 15.34H68.8953V16H68.0703C67.5276 16 67.1243 15.8753 66.8603 15.626C66.5963 15.3693 66.4643 14.9513 66.4643 14.372V10.643H65.6283V9.994H66.4643V8.487H67.2453V9.994H68.8953V10.643H67.2453ZM75.5992 12.689C75.5992 12.953 75.5918 13.1547 75.5772 13.294H70.5942C70.6162 13.7487 70.7262 14.1373 70.9242 14.46C71.1222 14.7827 71.3825 15.0283 71.7052 15.197C72.0278 15.3583 72.3798 15.439 72.7612 15.439C73.2598 15.439 73.6778 15.318 74.0152 15.076C74.3598 14.834 74.5872 14.5077 74.6972 14.097H75.5112C75.3645 14.6837 75.0492 15.164 74.5652 15.538C74.0885 15.9047 73.4872 16.088 72.7612 16.088C72.1965 16.088 71.6905 15.9633 71.2432 15.714C70.7958 15.4573 70.4438 15.098 70.1872 14.636C69.9378 14.1667 69.8132 13.6203 69.8132 12.997C69.8132 12.3737 69.9378 11.8273 70.1872 11.358C70.4365 10.8887 70.7848 10.5293 71.2322 10.28C71.6795 10.0307 72.1892 9.906 72.7612 9.906C73.3332 9.906 73.8318 10.0307 74.2572 10.28C74.6898 10.5293 75.0198 10.8667 75.2472 11.292C75.4818 11.71 75.5992 12.1757 75.5992 12.689ZM74.8182 12.667C74.8255 12.2197 74.7338 11.8383 74.5432 11.523C74.3598 11.2077 74.1068 10.9693 73.7842 10.808C73.4615 10.6467 73.1095 10.566 72.7282 10.566C72.1562 10.566 71.6685 10.7493 71.2652 11.116C70.8618 11.4827 70.6382 11.9997 70.5942 12.667H74.8182Z" fill="#65A282"/>
</svg>
