<svg xmlns="http://www.w3.org/2000/svg" width="23" height="22" viewBox="0 0 23 22" fill="none">
  <mask id="mask0_30380_22746" style="mask-type:luminance" maskUnits="userSpaceOnUse" x="0" y="0" width="23" height="22">
    <path d="M19.3353 0H3C1.34315 0 0 1.34315 0 3V19C0 20.6569 1.34315 22 3 22H19.3353C20.9921 22 22.3353 20.6569 22.3353 19V3C22.3353 1.34315 20.9921 0 19.3353 0Z" fill="white"/>
  </mask>
  <g mask="url(#mask0_30380_22746)">
    <path d="M11.1526 14.9848C13.2398 14.9848 14.8705 13.2207 14.8705 11.0494C14.8705 8.87819 13.1746 7.11406 11.1526 7.11406C9.06534 7.11406 7.43467 8.87819 7.43467 11.0494C7.43467 13.2207 9.13057 14.9848 11.1526 14.9848ZM11.1526 13.8992C9.65238 13.8992 8.41307 12.61 8.41307 11.0494C8.41307 9.48884 9.65238 8.19967 11.1526 8.19967C12.6528 8.19967 13.8921 9.48884 13.8921 11.0494C13.8921 12.61 12.6528 13.8992 11.1526 13.8992ZM5.90176 16.7938C5.93834 17.5837 6.18529 18.4304 6.85456 18.8516C7.57976 19.3081 8.45915 19.0666 9.22356 18.6794C9.8264 18.374 10.4835 18.2072 11.1407 18.2072C11.8244 18.2072 12.4639 18.3683 13.0463 18.6636C13.8245 19.0583 14.7522 19.3111 15.4888 18.8433C16.1547 18.4205 16.3445 17.5946 16.379 16.8066C16.4119 16.0548 16.6122 15.3052 16.9458 14.6111C17.2894 14.0154 17.7447 13.4895 18.2856 13.0877C18.9865 12.567 19.6854 11.8881 19.6854 11.015C19.6854 10.1419 18.9865 9.46306 18.2856 8.94238C17.7447 8.54057 17.2894 8.01462 16.9458 7.41894C16.5697 6.76681 16.381 6.00326 16.3626 5.23537C16.3437 4.44479 16.0961 3.59966 15.4268 3.17841C14.7016 2.72195 13.8254 2.96715 13.0629 3.35796C12.4761 3.65869 11.8309 3.82284 11.1407 3.82284C10.4896 3.82284 9.83848 3.65909 9.2402 3.35905C8.46021 2.96788 7.5292 2.719 6.79257 3.18675C6.1267 3.60958 5.93682 4.43541 5.90234 5.22342C5.86945 5.97527 5.66914 6.72484 5.33551 7.41894C4.99193 8.01462 4.53662 8.54057 3.99575 8.94238C3.29487 9.46306 2.59599 10.1419 2.59599 11.015C2.59599 11.8881 3.29488 12.567 3.99576 13.0877C4.53662 13.4895 4.99193 14.0154 5.33551 14.6111C5.66723 15.3012 5.86716 16.0462 5.90176 16.7938ZM8.20548 20.5141C8.11919 20.5141 8.03348 20.4992 7.95288 20.4684C6.88954 20.0617 5.88895 19.4639 5.00938 18.6143C4.87892 18.4786 4.8137 18.2751 4.87892 18.1394C5.20506 17.1216 5.0746 16.036 4.55279 15.1539C4.03098 14.204 3.24826 13.5933 2.26986 13.3898C2.18712 13.3611 2.11604 13.3203 2.06156 13.2673C1.91048 13.1205 1.91963 12.8792 1.8838 12.6716C1.7933 12.1472 1.74805 11.5915 1.74805 11.0829C1.74805 10.4722 1.81327 9.86157 1.94373 9.18306C1.96779 9.10795 2.00074 9.04208 2.0393 8.98545C2.15702 8.81251 2.37284 8.75144 2.56971 8.68066C3.4199 8.37499 4.14355 7.80243 4.55279 7.01183C5.0746 6.06192 5.13983 5.04416 4.87892 4.0264C4.86223 3.97429 4.85408 3.92219 4.85338 3.87236C4.84991 3.6235 5.10184 3.4658 5.29398 3.30761C6.137 2.61357 7.07974 2.07793 8.07503 1.65162C8.27071 1.58377 8.40116 1.65162 8.53162 1.78732C9.24911 2.53368 10.1623 3.00863 11.1407 3.00863C12.1191 3.00863 13.0975 2.60153 13.7497 1.78732C13.8802 1.65162 14.0759 1.58377 14.2063 1.65162C15.3152 2.05872 16.3588 2.66938 17.272 3.55144C17.4024 3.68714 17.4677 3.8907 17.4024 4.0264C17.0763 5.04416 17.2068 6.12977 17.7286 7.01183C18.2504 7.96175 19.0331 8.5724 20.0115 8.77596C20.0942 8.80465 20.1653 8.84547 20.2198 8.89842C20.3709 9.04524 20.3617 9.28658 20.3976 9.49417C20.4881 10.0185 20.5333 10.5742 20.5333 11.0829C20.5333 11.6935 20.4681 12.3042 20.3376 12.9827C20.3136 13.0578 20.2806 13.1237 20.2421 13.1803C20.1243 13.3532 19.9085 13.4143 19.7116 13.4851C18.8615 13.7908 18.1378 14.3633 17.7286 15.1539C17.2068 16.1038 17.1415 17.1216 17.4024 18.1394C17.4191 18.1915 17.4273 18.2436 17.428 18.2934C17.4314 18.5422 17.1795 18.7 16.9874 18.8581C16.1444 19.5522 15.2016 20.0878 14.2063 20.5141C14.0107 20.582 13.8802 20.5141 13.7497 20.3784C13.0323 19.6321 12.1191 19.1571 11.1407 19.1571C10.1623 19.1571 9.18388 19.5642 8.53162 20.3784C8.46639 20.4463 8.33594 20.5141 8.20548 20.5141Z" fill="#5AA95D"/>
  </g>
</svg>