<svg width="28" height="28" viewBox="0 0 28 28" fill="none" xmlns="http://www.w3.org/2000/svg">
<path d="M4.66699 17.5006V9.91724C4.66699 8.52485 5.22012 7.18949 6.20468 6.20493C7.18925 5.22036 8.52461 4.66724 9.91699 4.66724C11.3094 4.66724 12.6447 5.22036 13.6293 6.20493C14.6139 7.18949 15.167 8.52485 15.167 9.91724V18.0839C15.1671 18.8574 15.4744 19.5992 16.0214 20.1461C16.5683 20.693 17.3102 21.0003 18.0837 21.0003C18.8572 21.0003 19.599 20.693 20.146 20.1461C20.6929 19.5992 21.0002 18.8574 21.0003 18.0839V10.3022C20.2216 10.027 19.5652 9.48534 19.1472 8.77296C18.7293 8.06059 18.5766 7.22338 18.7162 6.40932C18.8558 5.59526 19.2788 4.85677 19.9102 4.32438C20.5417 3.792 21.341 3.5 22.167 3.5C22.9929 3.5 23.7923 3.792 24.4238 4.32438C25.0552 4.85677 25.4782 5.59526 25.6178 6.40932C25.7574 7.22338 25.6047 8.06059 25.1867 8.77296C24.7688 9.48534 24.1124 10.027 23.3337 10.3022V18.0839C23.3337 18.7733 23.1979 19.456 22.934 20.093C22.6702 20.73 22.2835 21.3087 21.796 21.7962C21.3085 22.2837 20.7297 22.6704 20.0927 22.9343C19.4558 23.1981 18.7731 23.3339 18.0837 23.3339C17.3942 23.3339 16.7115 23.1981 16.0746 22.9343C15.4376 22.6704 14.8589 22.2837 14.3713 21.7962C13.8838 21.3087 13.4971 20.73 13.2333 20.093C12.9695 19.456 12.8337 18.7733 12.8337 18.0839V9.91724C12.8336 9.14374 12.5263 8.40194 11.9793 7.85502C11.4323 7.3081 10.6905 7.00085 9.91699 7.00085C9.14349 7.00085 8.40167 7.3081 7.8547 7.85502C7.30772 8.40194 7.0004 9.14374 7.00033 9.91724V17.5006H10.5003L5.83366 23.3339L1.16699 17.5006H4.66699Z" fill="url(#paint0_radial_29879_22881)"/>
<defs>
<radialGradient id="paint0_radial_29879_22881" cx="0" cy="0" r="1" gradientUnits="userSpaceOnUse" gradientTransform="translate(20.6155 3.51844) rotate(129.645) scale(24.647 26.27)">
<stop stop-color="#64F6FF"/>
<stop offset="0.323127" stop-color="#FFE814"/>
<stop offset="0.557292" stop-color="#1EE3CF"/>
<stop offset="0.760417" stop-color="#89FFDC"/>
<stop offset="1" stop-color="#7378E5"/>
</radialGradient>
</defs>
</svg>
