<svg width="15" height="15" viewBox="0 0 15 15" fill="none" xmlns="http://www.w3.org/2000/svg">
<rect x="0.244141" width="14.3616" height="15" rx="2" fill="#564C45"/>
<path d="M11.0908 5.41218C10.5591 4.85404 9.8527 4.54693 9.10192 4.54693H6.15085V3.95433C6.15085 3.76534 6.02741 3.69443 5.87509 3.79707L4.51684 4.71768C4.36516 4.82093 4.36642 4.98631 4.52008 5.08617L5.87249 5.96562C6.02487 6.06554 6.15085 5.99195 6.15085 5.80297V5.21244H9.10257C10.3033 5.21244 11.2803 6.23902 11.2803 7.49913C11.2803 7.70836 11.254 7.9149 11.2013 8.11328C11.1544 8.29079 11.2534 8.47375 11.4224 8.52231C11.4507 8.53179 11.479 8.5358 11.5073 8.5358C11.6461 8.5358 11.7734 8.43864 11.8126 8.29219C11.8801 8.03503 11.9135 7.76838 11.9135 7.49979C11.9135 6.71149 11.621 5.96904 11.0908 5.41218ZM10.5668 9.91337L9.21506 9.0339C9.06141 8.93406 8.93542 9.00693 8.93542 9.19658V9.78583H5.74974C4.54899 9.78583 3.57195 8.75992 3.57195 7.49914C3.57195 7.05773 3.69215 6.62915 3.91907 6.25993C4.01422 6.10535 3.97174 5.89885 3.82521 5.79896C3.67798 5.69973 3.48132 5.74428 3.38682 5.89813C3.09307 6.37533 2.9375 6.92946 2.9375 7.4998C2.9375 8.28879 3.22998 9.0299 3.76091 9.58737C4.29188 10.1456 4.99832 10.4527 5.74974 10.4527H8.93607V11.0453C8.93607 11.2349 9.06014 11.3058 9.21183 11.2025L10.5701 10.2812C10.7218 10.1786 10.7205 10.0133 10.5668 9.91337Z" fill="#D8BA42"/>
</svg>
