<svg xmlns="http://www.w3.org/2000/svg" width="15" height="11" viewBox="0 0 15 11" fill="none">
  <path d="M12.0182 0.912135C12.0142 0.904501 12.0077 0.898518 11.9998 0.89526C11.0807 0.473592 10.1109 0.172909 9.11448 0.000737528C9.10542 -0.000945418 9.09607 0.000268679 9.08775 0.00420715C9.07942 0.00814562 9.07256 0.0146079 9.06812 0.0226751C8.93605 0.26237 8.81617 0.508577 8.70892 0.760356C7.63486 0.597314 6.54234 0.597314 5.46828 0.760356C5.36033 0.507938 5.23852 0.26167 5.10342 0.0226751C5.09879 0.0147833 5.09188 0.00846977 5.08361 0.00455688C5.07534 0.000643994 5.06608 -0.000686926 5.05704 0.000737528C4.06054 0.172548 3.09062 0.473253 2.17169 0.895284C2.16383 0.898619 2.15719 0.904313 2.1527 0.91158C0.31503 3.6559 -0.188377 6.33274 0.0585772 8.97643C0.0592719 8.98291 0.0612625 8.98918 0.0644307 8.99488C0.0675989 9.00057 0.0718799 9.00557 0.0770192 9.00958C1.14708 9.80188 2.34395 10.4066 3.61656 10.7981C3.62552 10.8008 3.63509 10.8006 3.64398 10.7977C3.65288 10.7948 3.66066 10.7892 3.66629 10.7818C3.93962 10.4099 4.18181 10.016 4.3904 9.60433C4.39327 9.59868 4.3949 9.59248 4.3952 9.58616C4.3955 9.57983 4.39446 9.57351 4.39214 9.56761C4.38981 9.56172 4.38627 9.55638 4.38174 9.55196C4.3772 9.54753 4.37179 9.54412 4.36584 9.54194C3.98392 9.39581 3.61418 9.21965 3.26009 9.01512C3.25366 9.01134 3.24825 9.00603 3.24436 8.99967C3.24046 8.99331 3.23819 8.98608 3.23775 8.97863C3.23731 8.97118 3.23871 8.96374 3.24183 8.95696C3.24495 8.95018 3.24969 8.94428 3.25563 8.93976C3.33014 8.88411 3.40335 8.82674 3.47522 8.76771C3.48152 8.76252 3.48915 8.75919 3.49724 8.7581C3.50534 8.75701 3.51357 8.7582 3.52102 8.76154C5.84084 9.82026 8.35235 9.82026 10.6447 8.76154C10.6522 8.75799 10.6605 8.75663 10.6687 8.75763C10.6769 8.75862 10.6847 8.76192 10.6911 8.76716C10.763 8.8265 10.8364 8.88405 10.9112 8.93976C10.9172 8.94423 10.922 8.9501 10.9252 8.95685C10.9283 8.96361 10.9298 8.97104 10.9294 8.97849C10.929 8.98593 10.9268 8.99317 10.9229 8.99956C10.9191 9.00595 10.9137 9.0113 10.9073 9.01512C10.554 9.22137 10.184 9.39742 9.80105 9.54138C9.7951 9.54365 9.7897 9.54714 9.7852 9.55163C9.78069 9.55613 9.77719 9.56152 9.77491 9.56746C9.77264 9.5734 9.77164 9.57976 9.77199 9.58611C9.77234 9.59246 9.77403 9.59867 9.77694 9.60433C9.98902 10.0138 10.2309 10.4071 10.5005 10.7811C10.506 10.7888 10.5137 10.7946 10.5226 10.7976C10.5316 10.8006 10.5412 10.8008 10.5502 10.798C11.8251 10.4079 13.0241 9.80307 14.0955 9.00958C14.1007 9.00577 14.105 9.00089 14.1082 8.99527C14.1114 8.98965 14.1133 8.98342 14.1139 8.97699C14.4096 5.9206 13.619 3.2657 12.0182 0.912135ZM4.73685 7.3667C4.03841 7.3667 3.46293 6.72576 3.46293 5.93861C3.46293 5.15146 4.02725 4.51047 4.73685 4.51047C5.45199 4.51047 6.02191 5.15703 6.01074 5.93856C6.01074 6.72576 5.44639 7.3667 4.73685 7.3667ZM9.44691 7.3667C8.7485 7.3667 8.17302 6.72576 8.17302 5.93861C8.17302 5.15146 8.73734 4.51047 9.44691 4.51047C10.1621 4.51047 10.732 5.15703 10.7208 5.93856C10.7208 6.72576 10.1621 7.3667 9.44691 7.3667Z" fill="#EBF8FF"/>
</svg>