<svg width="130" height="20" viewBox="0 0 130 20" fill="none" xmlns="http://www.w3.org/2000/svg">
<path d="M47.7128 17.0945V8.77683L50.6468 5.81436H58.6511L61.6136 8.77683V14.1605H51.4728V15.9836L52.3844 16.9236H57.0274L57.882 16.0406V15.2999H61.5851V17.1515L58.765 20H50.5898L47.7128 17.0945ZM57.8535 11.5399V9.88775L56.885 8.89077H52.4413L51.4728 9.88775V11.5399H57.8535Z" fill="#00CAE0"/>
<path d="M64.6047 5.81436H68.0799V8.17864L70.3588 5.81436H74.4037V9.00471H71.1279L68.3648 11.8532V20H64.6047V5.81436Z" fill="#00CAE0"/>
<path d="M76.2603 5.81436H79.7355V8.15015L82.0428 5.81436H85.632L87.569 7.77984L89.506 5.81436H94.4624L97.5103 8.89077V20H93.7503V10.0017L92.7818 9.00471H90.389L88.8793 10.5144V20H85.2332V9.94472L84.3217 9.00471H82.6125L80.0204 11.6254V20H76.2603V5.81436Z" fill="#00CAE0"/>
<path d="M101.08 5.81436H104.84V20H101.08V5.81436Z" fill="#00CAE0"/>
<path d="M108.557 5.81436H112.032V8.17864L114.396 5.81436H118.982L122.144 8.97622V20H118.384V10.0017L117.415 9.00471H115.023L112.317 11.7393V20H108.557V5.81436Z" fill="#00CAE0"/>
<path d="M125.699 5.81436H129.459V20H125.699V5.81436Z" fill="#00CAE0"/>
<rect x="101.068" y="0.375031" width="3.6976" height="3.6976" fill="#00CAE0"/>
<rect x="125.719" y="0.375031" width="3.6976" height="3.6976" fill="#00CAE0"/>
<path fill-rule="evenodd" clip-rule="evenodd" d="M5.1928 0.00561523H18.1751V5.19853H14.1363V10.3914H8.94336V5.19853H5.1928V0.00561523ZM0 14.7189H5.1928V19.9118H18.1751V14.7189L23.368 14.7189V9.52596H18.1751L18.1751 14.7189H5.19291V9.52596H0V14.7189Z" fill="#00CAE0"/>
<rect x="30.2656" width="16.1599" height="5.20403" fill="#00CAE0"/>
<rect x="35.7435" y="2.33368" width="5.20403" height="17.5294" fill="#00CAE0"/>
</svg>
